# xmcd
#
# Track frame offsets: 
#        150
#        33944
#        50490
#        63007
#        81333
#        94261
#        114198
#        131148
#        152182
#        166326
#        180542
#        193384
#        210882
#        227363
#        240799
#
# Disc length: 3390 seconds
#
# Revision: 2
# Processed by: cddbd v1.5.2PL0 Copyright (c) Steve Scherf et al.
# Submitted via: ExactAudioCopyFreeDBPlugin 1.0
#
DISCID=b70d3c0f
DTITLE=The Isley Brothers - Get Into Something
DYEAR=1970
DGENRE=Rhythm and Blues
TTITLE0=Get Into Something
TTITLE1=Freedom
TTITLE2=Take Inventory
TTITLE3=Keep on Doin' (mono)
TTITLE4=Girls Will Be Girls, Boys Will Be Boys
TTITLE5=I Need You So
TTITLE6=If He Can, You Can
TTITLE7=I Got to Find Me One
TTITLE8=Beautiful
TTITLE9=Bless Your Heart (mono)
TTITLE10=Baby You Got It (mono)
TTITLE11=Get Into Something - Part 1 (single) (mono)
TTITLE12=Get Into Something - Part 2  (single) (mono)
TTITLE13=Turn On, Tune In, Drop Out - Part 1 (mono)
TTITLE14=Turn On, Tune In, Drop Out - Part 2 (mono)
EXTD=
EXTT0=
EXTT1=
EXTT2=
EXTT3=
EXTT4=
EXTT5=
EXTT6=
EXTT7=
EXTT8=
EXTT9=
EXTT10=
EXTT11=
EXTT12=
EXTT13=
EXTT14=
PLAYORDER=
